<svg width="31" height="22" viewBox="0 0 31 22" fill="none" xmlns="http://www.w3.org/2000/svg">
<path fill-rule="evenodd" clip-rule="evenodd" d="M2.85057 6.50246V3.90148H4.27586V2.60099H5.70115V1.30049H8.43295V0H12.7088V1.40887L18.2912 1.30049V0H22.567V1.40887H25.4176V2.70936H26.7241V4.00985H28.1494V6.50246H29.5747V10.4039H31V18.0985H29.5747V19.399H28.1494V20.6995H26.7241V21.8916H21.1418V20.6995H19.7165V19.399H22.567V18.0985H23.9923V16.798H22.567V18.0985H8.47422V16.798H7.00766V18.0985H8.47422V19.3508H11.2835V20.6995H9.85824V22H5.58238V20.6995H2.85057V19.399H1.42529V18.0985H0V10.4039H1.42529V6.50246H2.85057ZM8.43295 7.80296H11.2835V9.10345H12.7088V11.7044H11.2835V13.0049H8.43295V11.7044H7.00766V9.10345H8.43295V7.80296ZM19.7165 9.10345H18.2912V11.7044H19.7165V12.8966H22.567V11.7044H23.9923V9.10345H22.567V7.80296H19.7165V9.10345Z" fill="white"/>
</svg>
