<svg width="16" height="16" viewBox="0 0 16 16" fill="none" xmlns="http://www.w3.org/2000/svg">
<g clip-path="url(#clip0_1033_7835)">
<path d="M15.3334 9.33331V9.99998H14.6667V11.3333H14.0001V12.6666H13.3334V13.3333H12.6667V14H11.3334V14.6666H10.0001V15.3333H6.00008V14.6666H4.66675V14H3.33341V13.3333H2.00008V14H1.33341V14.6666H0.666748V9.99998H5.33341V10.6666H4.66675V11.3333H4.00008V12.6666H4.66675V13.3333H6.00008V14H10.0001V13.3333H11.3334V12.6666H12.6667V11.3333H13.3334V9.33331H15.3334Z" fill="#7E7E81"/>
<path d="M15.3334 1.33335V6.00002H10.6667V5.33335H11.3334V4.66669H12.0001V3.33335H11.3334V2.66669H10.0001V2.00002H6.00008V2.66669H4.66675V3.33335H3.33341V4.66669H2.66675V6.66669H0.666748V6.00002H1.33341V4.66669H2.00008V3.33335H2.66675V2.66669H3.33341V2.00002H4.66675V1.33335H6.00008V0.666687H10.0001V1.33335H11.3334V2.00002H12.6667V2.66669H14.0001V2.00002H14.6667V1.33335H15.3334Z" fill="#7E7E81"/>
</g>
<defs>
<clipPath id="clip0_1033_7835">
<rect width="16" height="16" fill="white"/>
</clipPath>
</defs>
</svg>
