<svg width="25" height="24" viewBox="0 0 25 24" fill="none" xmlns="http://www.w3.org/2000/svg">
<path d="M15.375 22L17.375 22L17.375 21L19.375 21L19.375 20L20.375 20L20.375 19L21.375 19L21.375 17L22.375 17L22.375 15L23.375 15L23.375 9L22.375 9L22.375 7L21.375 7L21.375 5L20.375 5L20.375 4L19.375 4L19.375 3L17.375 3L17.375 2L15.375 2L15.375 1L9.375 1L9.375 2L7.375 2L7.375 3L5.375 3L5.375 4L4.375 4L4.375 5L3.375 5L3.375 7L2.375 7L2.375 9L1.375 9L1.375 15L2.375 15L2.375 17L3.375 17L3.375 19L4.375 19L4.375 20L5.375 20L5.375 21L7.375 21L7.375 22L9.375 22L9.375 23L15.375 23L15.375 22ZM9.375 21L9.375 20L7.375 20L7.375 19L5.375 19L5.375 17L4.375 17L4.375 15L3.375 15L3.375 9L4.375 9L4.375 7L5.375 7L5.375 5L7.375 5L7.375 4L9.375 4L9.375 3L15.375 3L15.375 4L17.375 4L17.375 5L19.375 5L19.375 7L20.375 7L20.375 9L21.375 9L21.375 15L20.375 15L20.375 17L19.375 17L19.375 19L17.375 19L17.375 20L15.375 20L15.375 21L9.375 21Z" fill="#3B82F6"/>
<path d="M13.375 17L11.375 17L11.375 16L10.375 16L10.375 15L9.375 15L9.375 14L8.375 14L8.375 13L7.375 13L7.375 12L11.375 12L11.375 6L13.375 6L13.375 12L17.375 12L17.375 13L16.375 13L16.375 14L15.375 14L15.375 15L14.375 15L14.375 16L13.375 16L13.375 17Z" fill="#3B82F6"/>
</svg>
