<svg width="25" height="24" viewBox="0 0 25 24" fill="none" xmlns="http://www.w3.org/2000/svg">
<g clip-path="url(#clip0_1033_7728)">
<path d="M9.125 2H7.125V3H5.125V4H4.125V5H3.125V7H2.125V9H1.125V15H2.125V17H3.125V19H4.125V20H5.125V21H7.125V22H9.125V23H15.125V22H17.125V21H19.125V20H20.125V19H21.125V17H22.125V15H23.125V9H22.125V7H21.125V5H20.125V4H19.125V3H17.125V2H15.125V1H9.125V2ZM15.125 3V4H17.125V5H19.125V7H20.125V9H21.125V15H20.125V17H19.125V19H17.125V20H15.125V21H9.125V20H7.125V19H5.125V17H4.125V15H3.125V9H4.125V7H5.125V5H7.125V4H9.125V3H15.125Z" fill="#EF4444"/>
<path d="M11.125 7H13.125V8H14.125V9H15.125V10H16.125V11H17.125V12H13.125V18H11.125V12H7.125V11H8.125V10H9.125V9H10.125V8H11.125V7Z" fill="#EF4444"/>
</g>
<defs>
<clipPath id="clip0_1033_7728">
<rect width="24" height="24" fill="white" transform="translate(0.125)"/>
</clipPath>
</defs>
</svg>
