<svg width="25" height="24" viewBox="0 0 25 24" fill="none" xmlns="http://www.w3.org/2000/svg">
<path d="M7.875 7H5.875V6H4.875V4H5.875V3H7.875V4H8.875V6H7.875V7Z" fill="#16A34A"/>
<path d="M5.875 11H6.875V14H5.875V15H2.875V14H1.875V11H2.875V10H5.875V11Z" fill="#16A34A"/>
<path d="M10.875 8H9.875V9H10.875V8Z" fill="#16A34A"/>
<path d="M16.875 15H15.875V16H16.875V15Z" fill="#16A34A"/>
<path d="M18.875 8H17.875V9H18.875V8Z" fill="#16A34A"/>
<path d="M9.875 7H8.875V8H9.875V7Z" fill="#16A34A"/>
<path d="M8.875 12H7.875V13H8.875V12Z" fill="#16A34A"/>
<path d="M16.875 14V11H15.875V10H14.875V9H11.875V10H10.875V11H9.875V14H10.875V15H11.875V16H14.875V15H15.875V14H16.875ZM11.875 14V11H14.875V14H11.875Z" fill="#16A34A"/>
<path d="M17.875 9H16.875V10H17.875V9Z" fill="#16A34A"/>
<path d="M17.875 16H16.875V17H17.875V16Z" fill="#16A34A"/>
<path d="M21.875 18H22.875V21H21.875V22H18.875V21H17.875V18H18.875V17H21.875V18Z" fill="#16A34A"/>
<path d="M22.875 5V7H21.875V8H19.875V7H18.875V5H19.875V4H21.875V5H22.875Z" fill="#16A34A"/>
</svg>
