<svg width="584" height="674" viewBox="0 0 584 674" fill="none" xmlns="http://www.w3.org/2000/svg">
<path d="M3.94449 402.611V269.391L119.166 335.954V469.081L3.94449 402.6V402.611Z" fill="#FFEF3B"/>
<path d="M233.325 402.611V269.391L118.103 335.954V469.081L233.325 402.6V402.611Z" fill="#E6D735"/>
<path d="M3.50064 269.917L118.722 202.734L233.944 269.917L118.722 336.573L3.50064 269.917Z" fill="#FFF36E"/>
<path d="M118.103 600.888L118.816 467.668L233.78 534.944L233.068 668.07L118.103 600.888Z" fill="#087BFF"/>
<path d="M347.402 602.033L348.114 469.081L232.717 534.932L232.005 667.79L347.402 602.021V602.033Z" fill="#076FE6"/>
<path d="M118.01 468.112L233.593 401.548L348.558 469.35L232.974 535.388L118.01 468.112Z" fill="#3B96FF"/>
<path d="M118.64 203.178L119.353 69.9579L234.317 137.234L233.605 270.36L118.64 203.178Z" fill="#FF2929"/>
<path d="M349.527 204.416L350.24 70.9273L234.306 137.047L233.593 270.442L349.527 204.404V204.416Z" fill="#E62525"/>
<path d="M119.516 70.4018L235.1 3.83841L350.065 71.6398L234.481 137.584L119.516 70.4018Z" fill="#FF5C5C"/>
<path d="M346.958 602.652L347.67 469.432L462.635 536.707L461.922 669.834L346.958 602.652Z" fill="#60F770"/>
<path d="M577.319 603.808L578.032 470.856L462.635 536.626L461.922 669.484L577.319 603.808Z" fill="#57DE64"/>
<path d="M347.577 469.443L463.16 402.88L578.125 470.681L462.541 536.719L347.577 469.443Z" fill="#79F786"/>
<path d="M349.527 204.334L349.796 71.2894L464.761 138.028L464.492 270.979L349.527 204.323V204.334Z" fill="#FF70DB"/>
<path d="M579.889 204.778L580.157 71.558L464.761 138.04L464.492 271.166L579.889 204.778Z" fill="#E665C5"/>
<path d="M349.434 71.7332L464.749 4.63263L579.889 71.9902L464.574 138.472L349.434 71.7332Z" fill="#FFA3E8"/>
<path d="M582.318 68.9651C581.734 68.6264 466.688 1.32722 466.688 1.32722C465.496 0.626426 464.013 0.626426 462.81 1.32722L349.831 67.0613L237.051 0.532978C235.859 -0.167812 234.376 -0.179497 233.173 0.509613C233.173 0.509613 118.033 66.6175 117.472 66.9328C116.281 67.6103 115.499 68.568 115.487 69.9346L114.798 200.562L3.19697 265.63C2.78818 265.712 0.627416 266.88 0.323741 267.3C-0.225211 268.48 0.0901477 271.657 0.0901477 271.657V402.6C0.0901477 403.978 0.82597 405.239 2.01731 405.928L114.763 470.973C114.809 471.067 114.891 471.137 114.95 471.23L114.261 600.853C114.261 602.231 114.985 603.504 116.164 604.193L228.98 670.126C229.12 670.313 230.825 671.469 232.566 671.399C234.446 671.329 236.186 669.881 236.537 669.624L346.619 606.891L459.984 673.139C460.579 673.49 461.257 673.665 461.922 673.665C462.588 673.665 463.382 673.373 463.826 673.163C493.727 658.645 579.223 607.125 579.223 607.125C580.414 606.448 581.162 605.174 581.162 603.808L581.863 471.335C581.944 470.097 581.244 468.042 580.064 467.341L465.111 399.539C463.92 398.839 462.436 398.827 461.245 399.516L348.173 464.631L237.179 399.166V272.813L349.597 208.784L461.736 273.806C461.981 274.063 462.261 274.285 462.565 274.46C463.161 274.81 463.826 274.974 464.492 274.974C465.158 274.974 465.812 274.799 466.407 274.46L581.804 208.072C582.996 207.383 583.731 206.121 583.731 204.743L584 71.523C584 70.1448 583.509 69.6075 582.318 68.9184V68.9651ZM573.488 601.565L465.8 662.849L466.454 538.891L490.62 525.086L574.142 477.479L573.476 601.554L573.488 601.565ZM463.137 407.318L570.463 470.623L486.602 518.534L462.588 532.222L355.297 469.432L463.149 407.318H463.137ZM351.91 476.428L458.769 538.962L458.103 663.165L351.244 600.713L351.91 476.428ZM345.685 202.185L237.471 263.82L237.775 206.308L238.125 139.932L345.93 78.4258L345.685 202.185ZM235.077 8.28839L341.877 71.2777L234.177 132.702L127.47 70.2616L235.077 8.28839ZM230.44 139.687L229.961 229.61L229.786 263.049L122.495 200.492L123.149 76.9891L230.44 139.698V139.687ZM114.261 461.816L7.78715 400.392V276.843L114.261 338.431V461.816ZM11.8401 269.508L118.302 207.43L224.974 269.776L118.64 331.212L11.8401 269.519V269.508ZM229.482 276.948V399.481L123.009 460.8V338.547L229.482 276.96V276.948ZM228.197 660.771L121.969 598.68L122.623 475.26L228.851 537.431L228.197 660.771ZM343.127 600.047L236.945 660.56L237.6 537.163L343.781 476.498L343.127 600.047ZM340.44 469.034L233.266 530.19L127.33 468.193L234.353 406.454L340.44 469.034ZM460.661 264.322L353.393 202.127L354.047 78.8462L460.906 140.796L460.661 264.322ZM464.761 133.59L357.645 71.4062L464.749 9.0943L571.982 71.8383L464.761 133.601V133.59ZM576.046 202.547L468.346 264.509L468.58 147.547V140.598L576.303 78.5075L576.058 202.547H576.046Z" fill="black"/>
</svg>
