<svg width="584" height="730" viewBox="0 0 584 730" fill="none" xmlns="http://www.w3.org/2000/svg">
<path d="M3.94446 436.279V291.919L119.166 364.048V508.308L3.94446 436.267V436.279Z" fill="#119040"/>
<path d="M233.325 436.279V291.919L118.103 364.048V508.308L233.325 436.267V436.279Z" fill="#16A34A"/>
<path d="M3.50061 292.488L118.722 219.688L233.944 292.488L118.722 364.719L3.50061 292.488Z" fill="#3ADF77"/>
<path d="M118.103 651.137L118.816 506.776L233.78 579.678L233.068 723.938L118.103 651.137Z" fill="#119040"/>
<path d="M347.402 652.377L348.114 508.308L232.717 579.665L232.005 723.634L347.402 652.365V652.377Z" fill="#16A34A"/>
<path d="M118.01 507.257L233.593 435.128L348.558 508.599L232.974 580.159L118.01 507.257Z" fill="#3ADF77"/>
<path d="M118.64 220.169L119.353 75.8081L234.317 148.71L233.605 292.969L118.64 220.169Z" fill="#119040"/>
<path d="M349.527 221.51L350.24 76.8586L234.306 148.507L233.593 293.058L349.527 221.498V221.51Z" fill="#16A34A"/>
<path d="M119.516 76.2891L235.1 4.15939L350.065 77.6307L234.481 149.09L119.516 76.2891Z" fill="#3ADF77"/>
<path d="M346.958 653.048L347.67 508.688L462.635 581.589L461.922 725.849L346.958 653.048Z" fill="#119040"/>
<path d="M577.319 654.301L578.032 510.232L462.635 581.501L461.922 725.469L577.319 654.301Z" fill="#16A34A"/>
<path d="M347.577 508.7L463.16 436.57L578.125 510.042L462.541 581.602L347.577 508.7Z" fill="#3ADF77"/>
<path d="M349.527 221.422L349.796 77.251L464.761 149.57L464.492 293.64L349.527 221.409V221.422Z" fill="#119140"/>
<path d="M579.889 221.903L580.157 77.5421L464.761 149.583L464.492 293.843L579.889 221.903Z" fill="#16A34A"/>
<path d="M349.434 77.7319L464.749 5.02002L579.889 78.0103L464.574 150.051L349.434 77.7319Z" fill="#3ADF77"/>
<path d="M582.318 74.7323C581.734 74.3652 466.688 1.4382 466.688 1.4382C465.496 0.67881 464.013 0.67881 462.81 1.4382L349.831 72.6693L237.051 0.577548C235.859 -0.181845 234.376 -0.194507 233.173 0.552229C233.173 0.552229 118.033 72.1883 117.472 72.5301C116.281 73.2641 115.499 74.302 115.487 75.7828L114.798 217.334L3.19697 287.843C2.78818 287.932 0.627416 289.198 0.323741 289.653C-0.225211 290.932 0.0901477 294.374 0.0901477 294.374V436.267C0.0901477 437.76 0.82597 439.127 2.01731 439.874L114.763 510.358C114.809 510.459 114.891 510.535 114.95 510.637L114.261 651.099C114.261 652.592 114.985 653.972 116.164 654.719L228.98 726.165C229.12 726.368 230.825 727.621 232.566 727.545C234.446 727.469 236.186 725.899 236.537 725.621L346.619 657.642L459.984 729.43C460.579 729.81 461.257 730 461.922 730C462.588 730 463.382 729.684 463.826 729.456C493.727 713.724 579.223 657.896 579.223 657.896C580.414 657.161 581.162 655.782 581.162 654.301L581.863 510.751C581.944 509.409 581.244 507.181 580.064 506.422L465.111 432.951C463.92 432.191 462.436 432.179 461.245 432.925L348.173 503.486L237.179 432.546V295.627L349.597 226.244L461.736 296.703C461.981 296.981 462.261 297.222 462.565 297.412C463.161 297.791 463.826 297.969 464.492 297.969C465.158 297.969 465.812 297.779 466.407 297.412L581.804 225.472C582.996 224.725 583.731 223.358 583.731 221.865L584 77.5041C584 76.0106 583.509 75.4284 582.318 74.6816V74.7323ZM573.488 651.871L465.8 718.28L466.454 583.956L490.62 568.996L574.142 517.408L573.476 651.858L573.488 651.871ZM463.137 441.38L570.463 509.978L486.602 561.896L462.588 576.729L355.297 508.688L463.149 441.38H463.137ZM351.91 516.269L458.769 584.032L458.103 718.622L351.244 650.947L351.91 516.269ZM345.685 219.093L237.471 285.882L237.775 223.561L238.125 151.634L345.93 84.9841L345.685 219.093ZM235.077 8.9815L341.877 77.2383L234.177 143.799L127.47 76.1372L235.077 8.9815ZM230.44 151.368L229.961 248.811L229.786 285.046L122.495 217.258L123.149 83.4273L230.44 151.38V151.368ZM114.261 500.435L7.78715 433.875V299.994L114.261 366.732V500.435ZM11.8401 292.045L118.302 224.776L224.974 292.336L118.64 358.91L11.8401 292.058V292.045ZM229.482 300.108V432.887L123.009 499.334V366.858L229.482 300.12V300.108ZM228.197 716.027L121.969 648.745L122.623 515.003L228.851 582.374L228.197 716.027ZM343.127 650.226L236.945 715.799L237.6 582.083L343.781 516.345L343.127 650.226ZM340.44 508.257L233.266 574.527L127.33 507.346L234.353 440.443L340.44 508.257ZM460.661 286.426L353.393 219.03L354.047 85.4397L460.906 152.57L460.661 286.426ZM464.761 144.761L357.645 77.3775L464.749 9.8548L571.982 77.8458L464.761 144.774V144.761ZM576.046 219.485L468.346 286.628L468.58 159.886V152.355L576.303 85.0727L576.058 219.485H576.046Z" fill="#2E2F35"/>
</svg>
